<?xml version="1.0" encoding="UTF-8"?>
<svg width="277px" height="52px" viewBox="0 0 277 52" version="1.1" xmlns="http://www.w3.org/2000/svg" xmlns:xlink="http://www.w3.org/1999/xlink">
    <!-- Generator: Sketch 52.5 (67469) - http://www.bohemiancoding.com/sketch -->
    <title>LOGOS</title>
    <desc>Created with Sketch.</desc>
    <g id="_Content-Band-Templates" stroke="none" stroke-width="1" fill="none" fill-rule="evenodd">
        <g id="CONTENT-BAND-TEMPLATES-Copy" transform="translate(-720.000000, -6456.000000)">
            <g id="TIER-3" transform="translate(128.000000, 6428.000000)">
                <g id="TIER-2">
                    <g id="Group-3" transform="translate(592.000000, 0.000000)">
                        <g id="LOGOS" transform="translate(0.000000, 28.000000)">
                            <g id="Image">
                                <g id="DowntownDC-Logo-FullColor-Horizontal">
                                    <path d="M180.964,31.691 C179.709,33.062 178.166,33.746 176.337,33.746 C174.506,33.746 172.964,33.062 171.709,31.691 C170.454,30.322 169.826,28.659 169.826,26.703 C169.826,24.748 170.454,23.08 171.709,21.699 C172.964,20.318 174.506,19.629 176.337,19.629 C178.166,19.629 179.709,20.318 180.964,21.699 C182.219,23.08 182.846,24.748 182.846,26.703 C182.846,28.659 182.219,30.322 180.964,31.691 Z M95.631,31.691 C94.376,33.062 92.833,33.746 91.003,33.746 C89.173,33.746 87.631,33.062 86.376,31.691 C85.121,30.322 84.493,28.659 84.493,26.703 C84.493,24.748 85.121,23.08 86.376,21.699 C87.631,20.318 89.173,19.629 91.003,19.629 C92.833,19.629 94.376,20.318 95.631,21.699 C96.885,23.08 97.513,24.748 97.513,26.703 C97.513,28.659 96.885,30.322 95.631,31.691 Z M73.842,31.77 C72.64,32.899 70.919,33.464 68.681,33.464 L65.575,33.464 L65.575,20.131 L68.304,20.131 C70.794,20.131 72.64,20.711 73.842,21.872 C75.045,23.032 75.646,24.69 75.646,26.845 C75.646,28.999 75.045,30.641 73.842,31.77 Z M230.784,15.864 L230.784,29.981 L220.023,15.864 L211.615,15.864 L207.255,28.476 L203.396,15.864 L198.282,15.864 L194.391,28.476 L190.062,15.864 L184.761,15.864 L186.955,22.151 C186.401,20.846 185.589,19.664 184.509,18.609 C182.292,16.444 179.562,15.362 176.321,15.362 C173.079,15.362 170.349,16.444 168.133,18.609 C167.776,18.957 167.459,19.323 167.16,19.699 L167.16,15.864 L145.451,15.864 L145.451,29.981 L134.69,15.864 L126.282,15.864 L121.921,28.476 L118.062,15.864 L112.948,15.864 L109.057,28.476 L104.728,15.864 L99.427,15.864 L101.62,22.148 C101.066,20.844 100.255,19.663 99.176,18.609 C96.959,16.444 94.229,15.362 90.987,15.362 C87.745,15.362 85.015,16.444 82.799,18.609 C81.499,19.879 80.591,21.335 80.053,22.968 C79.55,21.292 78.682,19.877 77.434,18.734 C75.343,16.821 72.341,15.864 68.43,15.864 L60.681,15.864 L60.681,37.794 L68.18,37.794 C72.362,37.794 75.473,36.801 77.512,34.813 C78.735,33.622 79.584,32.169 80.074,30.466 C80.614,32.074 81.515,33.512 82.799,34.767 C85.015,36.931 87.745,38.013 90.987,38.013 C94.229,38.013 96.959,36.931 99.176,34.767 C101.392,32.601 102.501,29.908 102.501,26.688 C102.501,25.533 102.352,24.449 102.068,23.431 L107.082,37.794 L110.721,37.794 L115.489,22.546 L120.29,37.794 L123.929,37.794 L130.109,20.088 L130.109,37.794 L135.004,37.794 L135.004,24.053 L145.451,37.794 L150.345,37.794 L150.345,20.1 L156.054,20.1 L156.054,37.794 L160.948,37.794 L160.948,20.1 L166.854,20.1 C165.496,21.974 164.806,24.167 164.806,26.688 C164.806,29.908 165.915,32.601 168.133,34.767 C170.349,36.931 173.079,38.013 176.321,38.013 C179.562,38.013 182.292,36.931 184.509,34.767 C186.725,32.601 187.835,29.908 187.835,26.688 C187.835,25.532 187.685,24.446 187.4,23.427 L192.415,37.794 L196.054,37.794 L200.823,22.546 L205.623,37.794 L209.262,37.794 L215.443,20.088 L215.443,37.794 L220.338,37.794 L220.338,24.053 L230.784,37.794 L235.679,37.794 L235.679,15.864 L230.784,15.864 Z" id="Fill-1" fill="#1A1919"></path>
                                    <g id="Group-5" transform="translate(0.000000, 8.000000)" fill="#868580">
                                        <path d="M250.156,23.77 C248.953,24.899 247.233,25.464 244.996,25.464 L241.889,25.464 L241.889,12.131 L244.619,12.131 C247.107,12.131 248.953,12.711 250.156,13.872 C251.359,15.032 251.961,16.69 251.961,18.845 C251.961,20.999 251.359,22.641 250.156,23.77 Z M267.113,25.464 C265.356,25.464 263.861,24.848 262.628,23.613 C261.392,22.379 260.776,20.742 260.776,18.703 C260.776,16.664 261.429,15.043 262.737,13.841 C264.044,12.638 265.618,12.036 267.459,12.036 C269.759,12.036 271.683,12.999 273.231,14.923 L276.274,11.472 C273.847,8.732 270.836,7.362 267.239,7.362 C264.018,7.362 261.294,8.45 259.066,10.625 C257.79,11.872 256.891,13.302 256.346,14.903 C255.84,13.257 254.98,11.862 253.749,10.734 C251.657,8.821 248.655,7.864 244.744,7.864 L236.995,7.864 L236.995,29.794 L244.494,29.794 C248.677,29.794 251.788,28.801 253.827,26.813 C255.011,25.659 255.841,24.258 256.337,22.625 C256.872,24.213 257.753,25.623 259.004,26.845 C261.189,28.977 263.97,30.044 267.348,30.044 C270.726,30.044 273.66,28.644 276.149,25.841 L273.012,22.609 C271.484,24.513 269.518,25.464 267.113,25.464 Z" id="Fill-2"></path>
                                        <path d="M9.73,13.183 L12.871,10.912 C11.271,5.505 7.444,4.66 5.074,5.01 C2.026,5.459 0,9.402 0,9.402 C2.319,2.776 7.013,-0.043 12.136,0.001 C16.955,0.043 19.53,2.517 21.311,4.778 L23.824,2.963 L20.503,13.183 L9.73,13.183" id="Fill-4"></path>
                                    </g>
                                    <path d="M25.511,10.937 L28.642,13.224 C33.289,10.03 32.91,6.13 31.845,3.983 C30.476,1.224 26.099,0.516 26.099,0.516 C33.119,0.673 37.249,4.267 38.791,9.152 C40.241,13.749 38.683,16.961 37.083,19.354 L39.586,21.183 L28.84,21.183 L25.511,10.937" id="Fill-6" fill="#868580"></path>
                                    <g id="Group-10" transform="translate(15.000000, 20.000000)" fill="#868580">
                                        <path d="M25.131,2.78 L23.925,6.464 C28.398,9.897 31.991,8.332 33.702,6.655 C35.904,4.5 35.225,0.119 35.225,0.119 C37.244,6.844 35.103,11.883 30.932,14.858 C27.009,17.658 23.473,17.17 20.702,16.387 L19.737,19.333 L16.416,9.112 L25.131,2.78" id="Fill-7"></path>
                                        <path d="M18.387,20.345 L14.51,20.335 C12.627,25.65 15.226,28.584 17.349,29.693 C20.079,31.121 24.036,29.122 24.036,29.122 C18.265,33.12 12.811,32.641 8.692,29.594 C4.817,26.727 4.189,23.214 4.077,20.337 L0.977,20.329 L9.671,14.013 L18.387,20.345" id="Fill-9"></path>
                                    </g>
                                    <path d="M14.598,39.357 L13.408,35.668 C7.771,35.52 5.785,38.897 5.385,41.26 C4.871,44.298 7.995,47.443 7.995,47.443 C2.409,43.189 1.18,37.855 2.804,32.996 C4.333,28.425 7.481,26.741 10.182,25.746 L9.232,22.795 L17.927,29.112 L14.598,39.357" id="Fill-11" fill="#868580"></path>
                                </g>
                            </g>
                        </g>
                    </g>
                </g>
            </g>
        </g>
    </g>
</svg>