<svg xmlns="http://www.w3.org/2000/svg" width="64.097" height="64.097" viewBox="0 0 64.097 64.097">
  <path id="Instagram" d="M32.049,5.341A26.707,26.707,0,1,1,5.341,32.049,26.738,26.738,0,0,1,32.049,5.341Zm0-5.341A32.049,32.049,0,1,0,64.1,32.049,32.05,32.05,0,0,0,32.049,0Zm0,18.914c4.279,0,4.786.016,6.477.093,4.345.2,6.37,2.257,6.57,6.567.075,1.691.091,2.2.091,6.474s-.016,4.786-.091,6.474c-.2,4.308-2.222,6.372-6.57,6.57-1.691.075-2.2.093-6.477.093s-4.786-.016-6.474-.093c-4.353-.2-6.37-2.267-6.57-6.57-.075-1.688-.093-2.2-.093-6.474s.019-4.786.093-6.474c.2-4.313,2.222-6.372,6.57-6.57,1.688-.077,2.2-.091,6.474-.091Zm0-2.89c-4.353,0-4.9.019-6.607.1-5.822.267-9.054,3.5-9.321,9.318-.077,1.712-.1,2.257-.1,6.607s.019,4.9.1,6.607c.267,5.819,3.5,9.054,9.321,9.321,1.712.077,2.254.1,6.607.1s4.9-.019,6.61-.1c5.811-.267,9.056-3.5,9.318-9.321.077-1.709.1-2.254.1-6.607s-.019-4.9-.1-6.607c-.262-5.814-3.5-9.054-9.318-9.318-1.712-.08-2.257-.1-6.61-.1Zm0,7.8a8.228,8.228,0,1,0,8.228,8.228A8.229,8.229,0,0,0,32.049,23.82Zm0,13.57a5.341,5.341,0,1,1,5.344-5.341A5.34,5.34,0,0,1,32.049,37.39ZM40.6,21.574A1.923,1.923,0,1,0,42.526,23.5,1.923,1.923,0,0,0,40.6,21.574Z" fill="#ff98ca"/>
</svg>
