<svg xmlns="http://www.w3.org/2000/svg" width="64.097" height="64.097" viewBox="0 0 64.097 64.097">
  <path id="Twwitter" d="M32.049,5.341A26.707,26.707,0,1,1,5.341,32.049,26.738,26.738,0,0,1,32.049,5.341Zm0-5.341A32.049,32.049,0,1,0,64.1,32.049,32.05,32.05,0,0,0,32.049,0Zm17.36,23.444a13.16,13.16,0,0,1-3.776,1.036,6.6,6.6,0,0,0,2.892-3.638,13.157,13.157,0,0,1-4.177,1.594,6.578,6.578,0,0,0-11.2,6,18.675,18.675,0,0,1-13.551-6.869,6.585,6.585,0,0,0,2.035,8.779,6.563,6.563,0,0,1-2.975-.823,6.583,6.583,0,0,0,5.275,6.53,6.59,6.59,0,0,1-2.97.112A6.584,6.584,0,0,0,27.1,40.726a13.233,13.233,0,0,1-9.74,2.727,18.6,18.6,0,0,0,10.077,2.954c12.211,0,19.106-10.312,18.69-19.56A13.255,13.255,0,0,0,49.408,23.444Z" fill="#ff98ca"/>
</svg>
